<svg xmlns="http://www.w3.org/2000/svg" width="256" height="256" viewBox="0 0 256 256"><defs><style>.a{fill:#176bff;}.b{fill:#fff;}</style></defs><rect class="a" width="256" height="256" rx="60"/><circle class="b" cx="127.5" cy="127.5" r="40.5"/><path class="b" d="M127.5,228A100.5,100.5,0,1,1,228,127.5,100.61,100.61,0,0,1,127.5,228Zm0-187A86.5,86.5,0,1,0,214,127.5,86.59,86.59,0,0,0,127.5,41Z"/><circle class="b" cx="188" cy="55" r="25"/><path class="a" d="M188,81.5A26.5,26.5,0,1,1,214.5,55,26.53,26.53,0,0,1,188,81.5Zm0-50A23.5,23.5,0,1,0,211.5,55,23.52,23.52,0,0,0,188,31.5Z"/></svg>