<svg xmlns="http://www.w3.org/2000/svg" width="256" height="256" viewBox="0 0 256 256"><defs><style>.a{fill:#ff2d20;}.b{fill:#fff;}</style></defs><rect class="a" width="256" height="256" rx="60"/><path class="b" d="M220.9,77.67a2.78,2.78,0,0,1,.1.76V118.2a2.89,2.89,0,0,1-1.46,2.51l-33.36,19.22v38.12a2.91,2.91,0,0,1-1.45,2.52L115,220.68a3.11,3.11,0,0,1-.5.21l-.2.08a2.9,2.9,0,0,1-1.49,0,1.47,1.47,0,0,1-.22-.1,2.18,2.18,0,0,1-.48-.19L42.46,180.57A2.91,2.91,0,0,1,41,178.05V58.74a3.23,3.23,0,0,1,.1-.76,2.44,2.44,0,0,1,.1-.24,3.57,3.57,0,0,1,.19-.45,2.26,2.26,0,0,1,.2-.26,4.08,4.08,0,0,1,.25-.33,2.77,2.77,0,0,1,.29-.22,2.51,2.51,0,0,1,.32-.25h0l34.81-20a2.94,2.94,0,0,1,2.9,0l34.8,20h0a2.51,2.51,0,0,1,.32.25,2.92,2.92,0,0,1,.28.21,3.85,3.85,0,0,1,.26.34c.06.09.15.17.2.26a3.57,3.57,0,0,1,.19.45,2.44,2.44,0,0,1,.1.24,2.84,2.84,0,0,1,.1.76v74.41l29-16.69v-38a2.71,2.71,0,0,1,.1-.75,2.6,2.6,0,0,1,.1-.25,4.32,4.32,0,0,1,.19-.45,2.35,2.35,0,0,1,.19-.25,3,3,0,0,1,.26-.34c.09-.08.19-.14.29-.22a3.76,3.76,0,0,1,.31-.25h.1l34.82-20a2.89,2.89,0,0,1,2.9,0l34.82,20c.12.08.21.17.32.25a3,3,0,0,1,.28.22,2.18,2.18,0,0,1,.26.34,1.64,1.64,0,0,1,.2.26,3,3,0,0,1,.19.45,2.44,2.44,0,0,1,.1.24Zm-5.72,38.81V83.41l-12.18,7-16.82,9.7v33.07l29-16.71Zm-34.82,59.86V143.23l-16.57,9.46-47.33,27v33.43ZM46.82,63.73v112.6l63.9,36.79V179.71L77.34,160.82h0a3.81,3.81,0,0,1-.32-.24c-.09-.08-.19-.13-.27-.21h0a3.65,3.65,0,0,1-.24-.31c-.07-.1-.16-.18-.22-.28h0a3.17,3.17,0,0,1-.15-.37,1.83,1.83,0,0,1-.14-.32h0a3.5,3.5,0,0,1-.08-.42c0-.11-.07-.33-.07-.33V80.44L59,70.74l-12.18-7ZM78.75,42l-29,16.7,29,16.71,29-16.71L78.74,42ZM93.82,146.23l16.82-9.68V63.77l-12.18,7L81.64,80.46v72.79Zm89.43-84.51-29,16.7,29,16.71,29-16.71Zm-2.89,38.44-16.82-9.69-12.18-7v33.05l16.82,9.68,12.18,7Zm-66.78,74.52,42.56-24.3,21.28-12.14-29-16.7L115,140.77,84.6,158.28Z"/></svg>